<?xml version="1.0" encoding="utf-8"?>
<!-- Generator: Adobe Illustrator 26.5.0, SVG Export Plug-In . SVG Version: 6.00 Build 0)  -->
<svg version="1.1" id="Layer_1" xmlns="http://www.w3.org/2000/svg" xmlns:xlink="http://www.w3.org/1999/xlink" x="0px" y="0px"
	 viewBox="0 0 1680 752" style="enable-background:new 0 0 1680 752;" xml:space="preserve">
<style type="text/css">
	.st0{clip-path:url(#SVGID_00000158031243490815663940000014254731189600269759_);}
	
		.st1{fill:url(#SVGID_00000137129076525826297660000006457686160907500432_);stroke:url(#SVGID_00000023974348263333144330000010414075319440028550_);}
	
		.st2{fill:url(#SVGID_00000057126013450959020200000004428532523328754339_);stroke:url(#SVGID_00000039817219302611304040000017739571099645497251_);}
	
		.st3{fill:url(#SVGID_00000132047939188861998150000013548013874474211200_);stroke:url(#SVGID_00000005235894751101162720000006375753123416533927_);}
	
		.st4{fill:url(#SVGID_00000034773614934954526940000010838774614452004237_);stroke:url(#SVGID_00000075123835498225685030000009443281783950391206_);}
	
		.st5{fill:url(#SVGID_00000150078216709057978400000000958748944242622126_);stroke:url(#SVGID_00000112596605584540026460000010922985569469415297_);}
	
		.st6{fill:url(#SVGID_00000029009916026413815520000005652059142057613226_);stroke:url(#SVGID_00000108276779484165966150000013309860760915492268_);}
	
		.st7{fill:url(#SVGID_00000142887208943027186310000018238493039743451302_);stroke:url(#SVGID_00000018224995912324502080000015430135586128506780_);}
	
		.st8{fill:url(#SVGID_00000024690011710603604750000014013089345373679805_);stroke:url(#SVGID_00000148650952813067382690000010276534569789235379_);}
	
		.st9{fill:url(#SVGID_00000027576032507570957600000000845460135819292802_);stroke:url(#SVGID_00000036247991210928397920000006930628557470324141_);}
	
		.st10{fill:url(#SVGID_00000086679390597571939470000009745246702004678079_);stroke:url(#SVGID_00000153664148349740740940000010694595360482017457_);}
	
		.st11{fill:url(#SVGID_00000145770766661097132820000004427802261955124671_);stroke:url(#SVGID_00000057841098439560063950000008401507635109089930_);}
	
		.st12{fill:url(#SVGID_00000080177032981944326230000005551500109034863239_);stroke:url(#SVGID_00000078765143483590896000000013126286538157617081_);}
	
		.st13{fill:url(#SVGID_00000167375932302390237530000005685339423778481298_);stroke:url(#SVGID_00000087372331917710537550000006420002855159762824_);}
</style>
<g>
	<defs>
		<rect id="SVGID_1_" width="1680" height="752"/>
	</defs>
	<clipPath id="SVGID_00000010285539070371022430000007857636803450954125_">
		<use xlink:href="#SVGID_1_"  style="overflow:visible;"/>
	</clipPath>
	<g style="clip-path:url(#SVGID_00000010285539070371022430000007857636803450954125_);">
		
			<linearGradient id="SVGID_00000183232073206257959470000018097777603059280288_" gradientUnits="userSpaceOnUse" x1="520.5776" y1="103.8036" x2="443.6574" y2="1087.0936" gradientTransform="matrix(1 0 0 -1 0 754)">
			<stop  offset="0.25" style="stop-color:#D2D3D3"/>
			<stop  offset="0.7448" style="stop-color:#D2D3D3;stop-opacity:0"/>
			<stop  offset="0.9115" style="stop-color:#D2D3D3"/>
		</linearGradient>
		
			<linearGradient id="SVGID_00000067930290042303142120000012136782041667824531_" gradientUnits="userSpaceOnUse" x1="520.514" y1="103.7986" x2="443.5939" y2="1087.0886" gradientTransform="matrix(1 0 0 -1 0 754)">
			<stop  offset="0.25" style="stop-color:#D2D3D3"/>
			<stop  offset="0.7448" style="stop-color:#D2D3D3;stop-opacity:0"/>
			<stop  offset="0.9115" style="stop-color:#D2D3D3"/>
		</linearGradient>
		
			<path style="fill:url(#SVGID_00000183232073206257959470000018097777603059280288_);stroke:url(#SVGID_00000067930290042303142120000012136782041667824531_);" d="
			M-1791.5,342.9c6.4,0.2,12.9,0,19.4-0.2c133-6.2,267.2-55.6,396.9-103.3c58.6-21.6,114-41.9,169.5-58.7
			C-929.9,97.4-694.8,60.2-474.9,65.5c32.5,0.8,64.7,2.5,96.6,5.2c264.6,21.9,511.6,122.3,729.6,210.8
			c123.4,50.1,234.5,84,339.8,103.6c121.3,22.5,237.2,26.9,354.3,13.3c263.1-30.4,519.4-119.6,767.4-205.9
			c51.4-17.9,104.5-36.4,156.5-53.9c165-55.6,302.9-100.8,449.3-133.7c106.8-24,220-45.8,326-26.6
			c165.4,30.1,201.3,167.4,223.7,305.5l0.8-0.2c-10.6-64.8-26-138.7-60.4-196c-36.4-60.7-90.1-96.7-164-110.2
			c-106.2-19.4-219.5,2.5-326.3,26.6C2271.9,37,2134,82.3,1969,137.8c-52.1,17.6-105.2,36-156.6,53.9
			c-247.9,86.2-504.2,175.3-767.2,205.9c-218.6,25.3-432.6-10.6-693.8-116.8C225.1,229.4,111.1,183.9-5.7,147.1
			C-140.1,104.7-262,79.5-378.4,69.9c-133.3-11-270.2-5.8-418.6,15.9c-127.6,18.7-261.4,49.5-409,94
			c-55.5,16.8-110.9,37.1-169.5,58.7c-129.7,47.8-263.8,97-396.7,103.2c-114.6,5.3-172.7-61.5-218.5-134.5l-0.6,0.4
			c30,47.9,58.5,80,89.7,101.2C-1869.5,330.7-1833.4,341.9-1791.5,342.9z"/>
		
			<linearGradient id="SVGID_00000088850058166777849390000014919361630214353066_" gradientUnits="userSpaceOnUse" x1="520.2211" y1="88.6404" x2="444.1611" y2="1067.6814" gradientTransform="matrix(1 0 0 -1 0 754)">
			<stop  offset="0.25" style="stop-color:#D2D3D3"/>
			<stop  offset="0.7448" style="stop-color:#D2D3D3;stop-opacity:0"/>
			<stop  offset="0.9115" style="stop-color:#D2D3D3"/>
		</linearGradient>
		
			<linearGradient id="SVGID_00000025401220741405594200000014186658316351017117_" gradientUnits="userSpaceOnUse" x1="520.1662" y1="88.6362" x2="444.1061" y2="1067.6771" gradientTransform="matrix(1 0 0 -1 0 754)">
			<stop  offset="0.25" style="stop-color:#D2D3D3"/>
			<stop  offset="0.7448" style="stop-color:#D2D3D3;stop-opacity:0"/>
			<stop  offset="0.9115" style="stop-color:#D2D3D3"/>
		</linearGradient>
		
			<path style="fill:url(#SVGID_00000088850058166777849390000014919361630214353066_);stroke:url(#SVGID_00000025401220741405594200000014186658316351017117_);" d="
			M830.1,423.3c45.3,1.1,90.3-0.4,135.6-4.6c227.1-20.9,445.1-102.8,655.9-182c27.2-10.2,55.3-20.8,82.9-31
			c77.9-29.1,146.8-53.5,210.7-74.4C2100.6,70.4,2244.9,33,2383,9.9c46-7.7,100.3-16.1,154.5-19.8c67.9-4.7,127.2-1.5,181.2,9.9
			c164.6,35.1,213.9,166.7,250.3,298.6l0.7-0.3c-17.9-64.8-39.7-132.4-78.2-187c-41.9-59.6-98.4-96.2-172.6-112
			c-54.1-11.5-113.4-14.8-181.4-9.9c-54.2,3.7-108.6,12.1-154.6,19.8c-138.2,23-282.5,60.4-468,121.3
			c-63.9,21-132.8,45.3-210.8,74.4c-27.6,10.2-55.7,20.8-82.9,31c-210.7,79.2-428.7,161-655.6,181.9c-214,19.7-429.6-19.8-678.4-124
			l-6.9-3c-52.1-21.9-106-44.5-158.6-65.7c-165.5-67-345.4-132.3-541-155.7c-102.2-12.2-210.1-14.8-321-7.6
			c-153,10.3-316.1,39.1-485,85.8c-64.1,17.6-131.5,41.8-191.1,63l-8.2,3c-116.5,41.7-237,84.7-355.3,94.1
			c-110.9,8.8-168.2-49.5-213.7-113.9l-0.6,0.4c29.8,42.1,58,70.2,88.8,88.3c36,21.2,77.1,29.7,125.7,25.9
			c118.3-9.4,239-52.5,355.6-94.1l8.2-3c59.5-21.3,127-45.4,191-62.9c168.8-46.5,331.9-75.4,484.8-85.7
			c110.8-7.2,218.9-4.7,320.9,7.6C-224,93.8-44,159.1,121.4,226.1c52.7,21.2,106.5,43.9,158.6,65.7l7,3
			c119,49.9,227.6,84.1,332.3,104.8C690.9,413.8,760.8,421.6,830.1,423.3z"/>
		
			<linearGradient id="SVGID_00000035530342456105346170000002652473041701531782_" gradientUnits="userSpaceOnUse" x1="520.7661" y1="67.887" x2="443.8061" y2="1052.369" gradientTransform="matrix(1 0 0 -1 0 754)">
			<stop  offset="0.25" style="stop-color:#D2D3D3"/>
			<stop  offset="0.7448" style="stop-color:#D2D3D3;stop-opacity:0"/>
			<stop  offset="0.9115" style="stop-color:#D2D3D3"/>
		</linearGradient>
		
			<linearGradient id="SVGID_00000011716482999340746990000010324999155432556426_" gradientUnits="userSpaceOnUse" x1="520.7292" y1="67.8841" x2="443.7693" y2="1052.3662" gradientTransform="matrix(1 0 0 -1 0 754)">
			<stop  offset="0.25" style="stop-color:#D2D3D3"/>
			<stop  offset="0.7448" style="stop-color:#D2D3D3;stop-opacity:0"/>
			<stop  offset="0.9115" style="stop-color:#D2D3D3"/>
		</linearGradient>
		
			<path style="fill:url(#SVGID_00000035530342456105346170000002652473041701531782_);stroke:url(#SVGID_00000011716482999340746990000010324999155432556426_);" d="
			M776.1,441.5c36.6,0.9,73.2,0.1,109.9-2.5c219.9-15.1,427.6-100.9,628.4-183.9c42.3-17.4,86-35.6,128.8-52.6
			c78.5-31.1,149.8-56.8,217.7-78.6c175.3-56.1,334.4-91.7,486.4-108.9C2391.2,10,2449,4.1,2506.8,3.2c68.4-1.2,129.2,4.9,186,18.6
			c162.5,39.4,223.7,160.3,276.8,291.5l0.7-0.3c-23.4-57.8-52.1-123.9-96-178.1c-47.5-58.5-106.8-95.7-181.3-113.7
			c-56.7-13.7-117.6-19.8-186.2-18.6c-57.7,0.9-115.6,6.8-159.6,11.9c-152,17.2-311.2,52.8-486.6,109
			c-68,21.8-139.3,47.5-217.8,78.7c-42.8,17-86.6,35-128.9,52.6c-200.7,83-408.3,168.8-628.1,183.8
			C674,452.9,463.4,411.3,222.9,307.3c-11.8-5.2-23.6-10.3-35.4-15.4c-41.3-18-84.2-36.7-125.8-54.3
			C-90.8,172.3-269.6,100-460.4,69.5C-560.7,53.4-665.1,46.7-771,49.3c-153,3.8-312.4,26.3-474,66.5
			c-62.4,15.4-127.3,37.1-188.1,58.2c-13.1,4.5-26.4,9.2-39.3,13.7c-103.7,36.4-211,74.1-315.5,85.9
			c-107.2,12.3-163.7-37.6-208.9-93.2l-0.6,0.5c29.5,36.4,57.4,60.3,87.8,75.4c35.3,17.5,75.1,23.5,121.9,18.1
			c104.5-12,211.9-49.6,315.7-86c12.9-4.6,26.2-9.2,39.3-13.7c60.8-21.1,125.7-42.8,188.1-58.2C-1083.2,76.3-923.8,54-770.9,50
			c105.8-2.6,210.2,4.1,310.5,20.2c190.7,30.5,369.5,102.8,522,168.2c41.6,17.7,84.4,36.3,125.8,54.3c11.8,5.2,23.6,10.2,35.4,15.4
			c114.8,49.7,221,84.4,324.6,106.3C625.3,430.6,700.9,439.7,776.1,441.5z"/>
		
			<linearGradient id="SVGID_00000018959341786043018590000009371263764053845651_" gradientUnits="userSpaceOnUse" x1="521.8839" y1="45.2203" x2="443.0139" y2="1040.6182" gradientTransform="matrix(1 0 0 -1 0 754)">
			<stop  offset="0.25" style="stop-color:#D2D3D3"/>
			<stop  offset="0.7448" style="stop-color:#D2D3D3;stop-opacity:0"/>
			<stop  offset="0.9115" style="stop-color:#D2D3D3"/>
		</linearGradient>
		
			<linearGradient id="SVGID_00000163058459466396929250000012205886948735286711_" gradientUnits="userSpaceOnUse" x1="521.8596" y1="45.2183" x2="442.9896" y2="1040.6162" gradientTransform="matrix(1 0 0 -1 0 754)">
			<stop  offset="0.25" style="stop-color:#D2D3D3"/>
			<stop  offset="0.7448" style="stop-color:#D2D3D3;stop-opacity:0"/>
			<stop  offset="0.9115" style="stop-color:#D2D3D3"/>
		</linearGradient>
		
			<path style="fill:url(#SVGID_00000018959341786043018590000009371263764053845651_);stroke:url(#SVGID_00000163058459466396929250000012205886948735286711_);" d="
			M722.7,460.3c27.9,0.7,55.7,0.4,83.7-0.9c218.7-10.1,421.7-101.7,618.1-190.4c51.8-23.3,105.3-47.5,157.6-69.5
			c78.9-33,152.4-60.2,224.7-82.7c172.1-53.8,342-86.2,504.9-96.5c65.9-4.3,116.6-5.5,164.4-3.8c67.8,2.1,132,11.2,190.7,27.2
			c171.3,46.4,244.5,178.4,303.4,284.5l0.7-0.4c-33.7-60.7-67.8-119.4-113.9-169.2c-53.1-57.5-115.2-95.3-190-115.5
			c-58.8-15.9-123.1-25.1-190.9-27.2c-47.8-1.6-98.5-0.4-164.5,3.8c-83.3,5.3-168.8,16.3-254.2,32.8
			c-81.9,15.8-166.4,37.3-250.8,63.7c-72.4,22.7-145.9,49.7-224.8,82.8c-52.4,22-105.9,46.1-157.7,69.5
			c-196.3,88.7-399.3,180.3-617.8,190.4c-206.1,9.5-417.9-35.8-647.5-138.3c-27.5-12.4-55.1-24.9-81.8-36.9
			c-24.7-11.1-50.1-22.7-74.9-33.8C-171.8,171.5-329.7,104-501.4,69c-99.1-20.2-197.3-30.9-300.1-32.7
			c-153.2-2.7-308.9,13.1-463,47.3c-52.2,11.4-109.3,28-185.1,53.5c-23.1,7.8-46.5,16-69.1,23.8c-91.2,31.8-185.6,64.8-276.9,78.6
			c-83.7,12.6-142.8-8.4-204.2-72.6l-0.6,0.5c29.3,30.7,56.9,50.6,86.8,62.5c34.5,13.7,73.1,17.2,118,10.4
			c91.4-13.8,185.9-46.8,277.1-78.7c22.6-7.9,46-16.1,69.1-23.8c75.8-25.5,132.8-42,185.1-53.4c154-34.1,309.7-49.9,462.8-47.2
			c102.9,1.9,200.9,12.6,300,32.7C-329.9,104.9-172,172.4,1.8,250.6c24.8,11.1,50.2,22.7,74.9,33.8c26.7,12.1,54.4,24.6,81.8,36.9
			c110.9,49.5,214.6,84.8,317.1,108C559.9,448,641.4,458.3,722.7,460.3z"/>
		
			<linearGradient id="SVGID_00000125589492720875906150000015942504913503511226_" gradientUnits="userSpaceOnUse" x1="523.3337" y1="20.0895" x2="441.1535" y2="1033.8055" gradientTransform="matrix(1 0 0 -1 0 754)">
			<stop  offset="0.25" style="stop-color:#D2D3D3"/>
			<stop  offset="0.7448" style="stop-color:#D2D3D3;stop-opacity:0"/>
			<stop  offset="0.9115" style="stop-color:#D2D3D3"/>
		</linearGradient>
		
			<linearGradient id="SVGID_00000072263288326832726770000016938725156488170371_" gradientUnits="userSpaceOnUse" x1="523.3133" y1="20.0879" x2="441.1331" y2="1033.8038" gradientTransform="matrix(1 0 0 -1 0 754)">
			<stop  offset="0.25" style="stop-color:#D2D3D3"/>
			<stop  offset="0.7448" style="stop-color:#D2D3D3;stop-opacity:0"/>
			<stop  offset="0.9115" style="stop-color:#D2D3D3"/>
		</linearGradient>
		
			<path style="fill:url(#SVGID_00000125589492720875906150000015942504913503511226_);stroke:url(#SVGID_00000072263288326832726770000016938725156488170371_);" d="
			M671,479.8c18.6,0.5,37.3,0.5,55.6,0c220.6-5.2,422.2-104.1,617.3-199.6c58.1-28.5,118.2-57.9,177-83.8
			c78.9-34.8,156.9-64,231.8-87c173.4-52.9,349.5-81.2,523.4-84.1c65.7-1.3,119.5,0.1,169.3,4.1c67.9,5.4,133.7,17.4,195.6,35.8
			c163.3,48.8,248.6,166,324,269.4l5.9,8.2l0.6-0.5l-5.9-8.2C2927,281,2887,226.1,2836,178c-57.9-54.6-121.6-91.7-194.7-113.5
			c-61.8-18.5-127.7-30.5-195.8-35.9c-49.9-4.1-103.7-5.4-169.4-4.1c-174,2.9-350.2,31.2-523.6,84.1c-74.9,23-153,52.2-231.9,87
			c-58.8,25.9-118.8,55.3-177,83.8c-195,95.5-396.5,194.3-617,199.5c-202.8,4.9-409.6-42.7-632.1-145.5
			C38,307.1-16.5,281.2-57.7,261.6l-9.3-4.4c-159.8-75.9-310.8-147.6-475.4-188.8C-639,44.3-733.7,29.5-832,23.2
			c-152.8-9.8-304.9-0.3-452.1,28c-53.5,10.1-111.4,25.7-182.1,48.7c-32.8,10.7-65.9,22.4-98,33.6c-79,27.8-160.7,56.5-239.5,71.6
			c-79.8,15.3-139.3-0.2-199.5-52l-0.5,0.6c29,25,56.3,40.8,85.8,49.5c33.8,10,71.1,10.9,114.3,2.6c78.9-15.1,160.6-43.8,239.6-71.7
			c32.1-11.3,65.1-22.9,97.9-33.6c70.7-23.1,128.5-38.6,182-48.7c147.1-28.3,299.1-37.8,451.8-28c98.3,6.3,193,21.1,289.5,45.3
			C-378.1,110.3-227.3,182-67.5,257.9l9.3,4.4C-17,281.8,37.6,307.7,94.2,334c105.7,48.8,209.9,85.7,309.7,109.8
			C493.9,465.6,583.5,477.6,671,479.8z"/>
		
			<linearGradient id="SVGID_00000104674166225353376660000014401270737605067907_" gradientUnits="userSpaceOnUse" x1="526.3579" y1="-11.4796" x2="438.2578" y2="1033.6053" gradientTransform="matrix(1 0 0 -1 0 754)">
			<stop  offset="0.25" style="stop-color:#D2D3D3"/>
			<stop  offset="0.7448" style="stop-color:#D2D3D3;stop-opacity:0"/>
			<stop  offset="0.9115" style="stop-color:#D2D3D3"/>
		</linearGradient>
		
			<linearGradient id="SVGID_00000044137110916237025470000010562168238165522835_" gradientUnits="userSpaceOnUse" x1="526.345" y1="-11.4807" x2="438.2449" y2="1033.6042" gradientTransform="matrix(1 0 0 -1 0 754)">
			<stop  offset="0.25" style="stop-color:#D2D3D3"/>
			<stop  offset="0.7448" style="stop-color:#D2D3D3;stop-opacity:0"/>
			<stop  offset="0.9115" style="stop-color:#D2D3D3"/>
		</linearGradient>
		
			<path style="fill:url(#SVGID_00000104674166225353376660000014401270737605067907_);stroke:url(#SVGID_00000044137110916237025470000010562168238165522835_);" d="
			M576,501.3c23.9,0.6,47.6,0.2,71.2-1.2c229.6-13.9,436.4-118.7,636.5-220.1c57.9-29.3,117.8-59.8,176.3-86.7
			c80.2-37.1,160.5-67.7,238.7-91.1c174.5-52.2,355.3-76.3,537.5-71.9c1.4,0,2.9,0.1,4.4,0.1c65.3,1.6,122.4,5.6,174.3,12.2
			c67.9,8.4,135.3,23.3,200.3,44.5c152.7,49.6,246.7,151.5,329.6,241.4c8.9,9.6,18,19.5,26.9,29l0.6-0.5c-8.9-9.5-18.1-19.5-26.9-29
			c-42.5-46.1-86.5-93.8-139.3-136.5c-59.9-48.5-122.3-82.8-190.6-105.1c-65.1-21.1-132.5-36.1-200.5-44.5
			c-52-6.6-108.9-10.6-174.3-12.2c-1.4,0-2.9-0.1-4.4-0.1c-182.3-4.4-363.2,19.7-537.8,71.9c-78.3,23.4-158.6,54.1-238.9,91.1
			c-58.5,27.1-118.4,57.4-176.4,86.8C1083.2,380.7,876.4,485.5,647,499.4c-23.1,1.4-46,1.8-68.9,1.2
			c-211.3-5.2-411-88.5-547.7-153.8c-48.5-23.4-98.2-47.8-147.9-72.7c-16.4-8.2-32.9-16.6-48.8-24.6
			c-140.4-70.8-273-137.6-417-181.1C-677.4,40-768.6,21-862.6,10.5c-152-17-300.3-14.2-441.1,8.7c-54.1,8.7-112.7,23-179.2,44
			c-42.5,13.4-85,28.7-126,43.4c-70,25.1-136.1,48.9-202.7,64.5c-77,18.1-135.2,8.7-194.7-31.3l-0.5,0.6
			c59.7,40.2,118.2,49.7,195.3,31.4c66.6-15.7,132.8-39.4,202.8-64.5c41.1-14.8,83.6-30,126-43.4c66.4-20.9,125-35.3,179-43.9
			c140.6-22.9,288.9-25.8,440.8-8.7c93.8,10.6,185.1,29.5,279,57.8c144,43.4,276.6,110.3,416.9,181.1c15.9,8,32.5,16.4,48.8,24.6
			c49.7,24.9,99.4,49.4,147.9,72.7c111.5,53.2,210.4,91.3,302.4,116.3C418.1,487,498.4,499.5,576,501.3z"/>
		
			<linearGradient id="SVGID_00000110434086218404190500000015941974071204212641_" gradientUnits="userSpaceOnUse" x1="529.5311" y1="-40.6722" x2="434.9711" y2="1037.4668" gradientTransform="matrix(1 0 0 -1 0 754)">
			<stop  offset="0.25" style="stop-color:#D2D3D3"/>
			<stop  offset="0.7448" style="stop-color:#D2D3D3;stop-opacity:0"/>
			<stop  offset="0.9115" style="stop-color:#D2D3D3"/>
		</linearGradient>
		
			<linearGradient id="SVGID_00000165943923606787808170000010106075163522455681_" gradientUnits="userSpaceOnUse" x1="529.5404" y1="-40.6714" x2="434.9804" y2="1037.4677" gradientTransform="matrix(1 0 0 -1 0 754)">
			<stop  offset="0.25" style="stop-color:#D2D3D3"/>
			<stop  offset="0.7448" style="stop-color:#D2D3D3;stop-opacity:0"/>
			<stop  offset="0.9115" style="stop-color:#D2D3D3"/>
		</linearGradient>
		
			<path style="fill:url(#SVGID_00000110434086218404190500000015941974071204212641_);stroke:url(#SVGID_00000165943923606787808170000010106075163522455681_);" d="
			M514.4,520.9c17.8,0.4,35.6,0.3,53-0.4c233.3-9.7,440.1-121.9,640.1-230.5c62.8-34.1,127.6-69.3,191.1-99.9
			c81.8-39.4,164.5-71.4,245.8-95.3c179.1-52.4,367.6-72.3,560.4-59.3c65.9,4.3,124.5,10.9,179.2,20.1
			c67.7,11.3,136.7,29.1,205.1,53c140.2,49,238.8,136.4,325.8,213.4c19.7,17.4,38.3,33.9,57.3,50l0.6-0.6
			c-19-16-37.6-32.5-57.2-49.9c-44.7-39.6-90.9-80.4-143.7-117.9c-59.9-42.5-119.7-73.8-182.3-95.7c-68.5-23.9-137.5-41.8-205.2-53
			c-54.7-9.3-113.3-15.9-179.3-20.1c-95.1-6.5-190-4.8-282,4.7c-94.3,9.8-188.1,28.2-278.7,54.7c-81.3,23.9-164.1,55.9-245.9,95.4
			c-63.5,30.5-128.4,65.8-191.1,99.9C1007.6,398,800.7,510.2,567.6,519.9c-174.9,7.3-366-43.5-601.3-159.8
			c-49.2-24.5-97.5-49.4-143.5-73.8c-28.6-15.1-57-30.5-84.4-45.3c-122.2-65.9-237.7-128.2-362.6-172.9
			c-91.3-32.7-179.1-55.7-268.6-70.5c-150.6-24.7-295.3-28.2-430.1-10.5c-54.9,7-112.5,19.9-176.1,39.2
			c-52.2,15.9-103.9,35.1-153.9,53.7c-57.4,21.4-111.7,41.5-166.2,57c-74.3,21-131.2,17.7-190-10.8l-0.4,0.7
			c28.5,13.8,55.1,21.3,84,23.5c32.2,2.6,67.1-1.6,106.6-12.7c54.6-15.4,108.8-35.6,166.2-57c50-18.6,101.7-37.9,153.8-53.7
			c63.6-19.4,121.2-32.2,176-39.2c134.7-17.7,279.2-14.2,429.8,10.5c89.4,14.7,177.2,37.7,268.5,70.4
			c124.9,44.7,240.4,107,362.5,172.9c27.5,14.8,55.9,30.1,84.5,45.3c46,24.4,94.3,49.2,143.5,73.8C74.2,414.2,170.6,453,260.7,479.1
			C350.5,505.1,434,519,514.4,520.9z"/>
		
			<linearGradient id="SVGID_00000001657400395410135490000008590136206779479950_" gradientUnits="userSpaceOnUse" x1="533.5737" y1="-72.4409" x2="430.2837" y2="1048.478" gradientTransform="matrix(1 0 0 -1 0 754)">
			<stop  offset="0.25" style="stop-color:#D2D3D3"/>
			<stop  offset="0.7448" style="stop-color:#D2D3D3;stop-opacity:0"/>
			<stop  offset="0.9115" style="stop-color:#D2D3D3"/>
		</linearGradient>
		
			<linearGradient id="SVGID_00000097461110738361202150000016916276655809092510_" gradientUnits="userSpaceOnUse" x1="533.6193" y1="-72.4367" x2="430.3293" y2="1048.4823" gradientTransform="matrix(1 0 0 -1 0 754)">
			<stop  offset="0.25" style="stop-color:#D2D3D3"/>
			<stop  offset="0.7448" style="stop-color:#D2D3D3;stop-opacity:0"/>
			<stop  offset="0.9115" style="stop-color:#D2D3D3"/>
		</linearGradient>
		
			<path style="fill:url(#SVGID_00000001657400395410135490000008590136206779479950_);stroke:url(#SVGID_00000097461110738361202150000016916276655809092510_);" d="
			M454,540.7c11.3,0.3,22.6,0.3,33.8,0.1c237.9-4.7,445.5-125,646.3-241.3c69.8-40.5,135.9-78.7,203.5-112.6
			c83.4-41.8,168.4-75.2,252.8-99.5c182.9-52.4,377.6-68.2,578.9-47c66.4,6.8,126.7,16.1,184.1,28.2
			c67.2,13.9,137.8,34.6,209.9,61.7c125.8,47.1,220.4,117.7,311.9,185.9c33.6,25.1,65.3,48.7,97.8,70.5l0.5-0.6
			c-32.3-21.8-64.1-45.5-97.7-70.4c-91.5-68.2-186.2-138.7-312.1-186c-72.2-27-142.8-47.8-210.1-61.7C2296.3,56,2236,46.8,2169.4,40
			c-98.8-10.4-196.8-12-291.2-4.7c-98,7.6-194.9,25-288,51.6c-84.4,24.3-169.5,57.8-253,99.5c-67.5,33.9-133.6,72.1-203.5,112.6
			C933,415.2,725.5,535.5,487.8,540.2C318.4,543.6,126.7,489-98,373.3c-45.9-23.7-92.7-48.8-139.1-74.8
			c-39.6-22.2-78.5-44.7-116-66.5c-105.4-61.2-204.9-119-312.3-164.2c-88.6-37.2-173-64.3-258.2-83c-70.9-15.5-140.4-26-206.6-31.3
			c-73.1-5.7-144.5-5.2-212.5,1.5c-54.6,5.2-112.8,16.9-173.2,34.5c-62.3,18.2-123.1,42.1-181.9,65.2
			c-44.7,17.6-86.9,34.1-129.5,48.3c-70.8,23.6-128,26.6-185.2,9.9l-0.2,0.8c27.7,8.1,54.8,11.5,82.9,10.5
			c31.4-1.1,65-7.9,102.8-20.4c42.6-14.2,84.8-30.7,129.5-48.3c58.8-23.1,119.6-46.9,181.8-65.1c60.3-17.6,118.5-29.2,173-34.4
			c131-13,268-3.3,418.8,29.8c85.2,18.7,169.6,45.8,258.1,83c107.5,45.1,206.9,102.8,312.3,164.1c37.5,21.8,76.3,44.4,115.9,66.5
			c46.4,26,93.2,51.1,139.1,74.8C5.7,427.9,99.7,467.3,188.7,494.8c51.1,15.8,101.2,27.7,149,35.4
			C377.2,536.2,416.3,539.8,454,540.7z"/>
		
			<linearGradient id="SVGID_00000034799836508071736330000016437798398285685930_" gradientUnits="userSpaceOnUse" x1="542.9824" y1="-118.5224" x2="418.2224" y2="1099.6755" gradientTransform="matrix(1 0 0 -1 0 754)">
			<stop  offset="0.25" style="stop-color:#D2D3D3"/>
			<stop  offset="0.7448" style="stop-color:#D2D3D3;stop-opacity:0"/>
			<stop  offset="0.9115" style="stop-color:#D2D3D3"/>
		</linearGradient>
		
			<linearGradient id="SVGID_00000008858239397831177650000006568248081330944654_" gradientUnits="userSpaceOnUse" x1="543.025" y1="-118.5181" x2="418.265" y2="1099.6798" gradientTransform="matrix(1 0 0 -1 0 754)">
			<stop  offset="0.25" style="stop-color:#D2D3D3"/>
			<stop  offset="0.7448" style="stop-color:#D2D3D3;stop-opacity:0"/>
			<stop  offset="0.9115" style="stop-color:#D2D3D3"/>
		</linearGradient>
		
			<path style="fill:url(#SVGID_00000034799836508071736330000016437798398285685930_);stroke:url(#SVGID_00000008858239397831177650000006568248081330944654_);" d="
			M430.6,562.2c230.4,5.6,430.8-122.2,624.9-246c75.9-48.4,147.7-94.2,221-132.2c85-44.2,172.4-79,259.8-103.6
			c186.9-52.6,388-64.3,597.4-34.5c66.1,9.2,129.7,21.4,189.1,36.2c67.3,16.6,137.5,39.6,214.7,70.3
			c109.8,43.7,200.2,102.2,287.6,158.7c51.1,33,99.3,64.2,148.6,90.6l0.4-0.7c-49.3-26.4-97.5-57.5-148.6-90.5
			c-87.5-56.6-178-115-287.7-158.8c-77.2-30.7-147.4-53.8-214.8-70.3c-59.3-14.8-123-27-189.2-36.2
			c-102.4-14.5-203.4-19.2-300.4-14.1c-101.6,5.4-201.7,21.8-297.3,48.7c-87.5,24.6-174.9,59.5-259.9,103.7
			c-73.3,38-145.1,83.9-221,132.3C855,443.4,648,575.5,408.3,560.6c-181-11.3-378.3-71.4-570.4-174.1
			c-45.6-24.4-90.9-49.9-134.6-75.8c-49.6-29.4-97.2-59.4-143.3-88.5c-89.9-56.6-174.8-110.2-266.2-154.8
			c-85.7-41.8-166.7-73-247.7-95.5c-148.6-41.3-282.1-57.4-408.1-49c-54.7,3.4-112,13.4-170.2,29.7c-73.1,20.5-143.1,50-210.9,78.5
			c-31.7,13.4-61.6,26-91.9,37.7c-68.7,26.7-124.4,36.1-180.5,30.6l-0.1,0.8c56.3,5.6,112.1-3.8,180.9-30.6
			c30.3-11.8,60.2-24.4,91.9-37.7c67.7-28.5,137.7-58,210.7-78.5c58.1-16.2,115.2-26.3,170-29.7c125.9-8.3,259.3,7.7,407.8,49
			c80.9,22.5,161.9,53.7,247.6,95.5c91.5,44.6,176.3,98,266.2,154.7c46.1,29.1,93.7,59.1,143.3,88.5c43.7,25.9,89.1,51.5,134.7,75.8
			C29.8,489.9,227.2,550.2,408.3,561.4C415.6,561.6,423.2,562,430.6,562.2z"/>
		
			<linearGradient id="SVGID_00000042002887602833646370000011739268955259585168_" gradientUnits="userSpaceOnUse" x1="553.7002" y1="-166.5415" x2="404.1304" y2="1154.0525" gradientTransform="matrix(1 0 0 -1 0 754)">
			<stop  offset="0.25" style="stop-color:#D2D3D3"/>
			<stop  offset="0.7448" style="stop-color:#D2D3D3;stop-opacity:0"/>
			<stop  offset="0.9115" style="stop-color:#D2D3D3"/>
		</linearGradient>
		
			<linearGradient id="SVGID_00000109015970673337637840000017452084974291835550_" gradientUnits="userSpaceOnUse" x1="553.7803" y1="-166.5324" x2="404.2105" y2="1154.0615" gradientTransform="matrix(1 0 0 -1 0 754)">
			<stop  offset="0.25" style="stop-color:#D2D3D3"/>
			<stop  offset="0.7448" style="stop-color:#D2D3D3;stop-opacity:0"/>
			<stop  offset="0.9115" style="stop-color:#D2D3D3"/>
		</linearGradient>
		
			<path style="fill:url(#SVGID_00000042002887602833646370000011739268955259585168_);stroke:url(#SVGID_00000109015970673337637840000017452084974291835550_);" d="
			M362.8,583.4c47.4,1.2,94.8-3.5,143.9-14.2c54.1-11.8,108.9-30.6,167.5-57.6c108.6-49.9,212.3-119.7,312.5-187.2
			c78.5-52.9,152.8-102.9,228.6-143.6c86.8-46.6,176.5-82.8,266.9-107.9c191.2-52.8,398.5-60.3,616-22.2
			c66.6,11.5,131.9,26.5,194,44.2c66.2,18.7,137.9,44.6,219.5,78.9c92.1,38.8,173.8,86.1,252.9,131.7
			c71.7,41.6,139.6,80.8,209.8,110.6l0.3-0.7c-70.1-29.7-137.9-69-209.8-110.5c-79.1-45.7-160.9-93-253-131.8
			c-81.5-34.3-153.4-60.2-219.5-79c-62.1-17.7-127.4-32.7-194-44.2c-105.9-18.5-210.1-26.5-309.8-23.5
			c-105.1,3.1-208.3,18.5-306.6,45.7c-90.4,25-180.2,61.3-266.9,107.9c-75.9,40.7-150,90.7-228.7,143.6
			C783.6,460.2,574.1,601.2,328.4,580.7C156.1,566.4-41,502-226.6,399.5c-46.5-25.9-90.3-51.8-130.2-76.8
			C-415.1,286-470,248.2-523.1,211.7C-598.9,159.6-670.5,110.3-747.5,67c-83.7-47.2-159.2-81.5-237.2-108.2
			c-146-49.7-275.9-72.1-397.2-68.3c-54.7,1.6-111,9.9-167.2,25c-84.9,22.7-164.4,59.4-241.3,94.9c-17.4,8-35.3,16.3-52.7,24.1
			c-67.2,30.2-121.4,46-175.8,51.2l0.1,0.8c54.5-5.2,108.8-21,176.1-51.2c17.5-7.9,35.4-16.1,52.7-24.1
			c76.8-35.4,156.3-72.1,241.2-94.8c56.1-15,112.3-23.4,166.9-24.9c121.2-3.8,251,18.6,396.9,68.2c78,26.6,153.4,60.9,237.1,108.1
			c77,43.3,148.6,92.6,224.4,144.7c53.1,36.5,108,74.3,166.4,111c40,25.1,83.8,51,130.3,76.9c89.4,49.3,181,89.9,272.3,120.5
			c98,32.9,193.2,53.4,283,60.9C339.8,582.5,351.2,583.1,362.8,583.4z"/>
		
			<linearGradient id="SVGID_00000147198197669407051320000007902231606557837968_" gradientUnits="userSpaceOnUse" x1="565.8582" y1="-215.0629" x2="388.5981" y2="1209.9022" gradientTransform="matrix(1 0 0 -1 0 754)">
			<stop  offset="0.25" style="stop-color:#D2D3D3"/>
			<stop  offset="0.7448" style="stop-color:#D2D3D3;stop-opacity:0"/>
			<stop  offset="0.9115" style="stop-color:#D2D3D3"/>
		</linearGradient>
		
			<linearGradient id="SVGID_00000176021176674617668130000007274761580892470934_" gradientUnits="userSpaceOnUse" x1="565.9077" y1="-215.0567" x2="388.6476" y2="1209.9083" gradientTransform="matrix(1 0 0 -1 0 754)">
			<stop  offset="0.25" style="stop-color:#D2D3D3"/>
			<stop  offset="0.7448" style="stop-color:#D2D3D3;stop-opacity:0"/>
			<stop  offset="0.9115" style="stop-color:#D2D3D3"/>
		</linearGradient>
		
			<path style="fill:url(#SVGID_00000147198197669407051320000007902231606557837968_);stroke:url(#SVGID_00000176021176674617668130000007274761580892470934_);" d="
			M293.8,604.8c45.1,1.1,90.2-3.4,136.8-13.4c55-11.9,110.8-31.5,170.3-59.8C711.1,479,815.8,404.8,917.1,333.1
			c81.4-57.7,158.4-112.1,237.1-155.5c87.6-48.8,179.8-86.5,273.8-112c195.8-53.2,409.3-56.4,634.5-9.7
			c67.3,13.8,134.2,31.4,198.9,52.2c65.5,20.9,136.8,48.8,224.3,87.6c72.9,32.4,141.6,69,207.9,104.3
			c95.8,51.2,186.4,99.5,281.3,131l0.3-0.7c-94.8-31.5-185.4-79.8-281.3-130.9c-66.4-35.4-135-72-208-104.4
			c-87.5-38.8-158.8-66.7-224.4-87.6c-64.8-20.8-131.7-38.4-198.9-52.2c-109.4-22.7-216.7-33.8-319-32.9
			c-108.7,0.9-214.9,15.2-315.9,42.7c-94.1,25.6-186.3,63.3-274,112.1c-78.7,43.4-155.6,97.9-237.1,155.5
			C711.8,477.5,499.9,627.6,248.8,601.1c-167.1-17.7-358.7-84.5-539.5-188.4c-45.1-26.1-87.4-52.2-125.8-77.9
			c-65.9-43.9-126.5-89.7-185.1-133.9c-63.1-47.7-122.8-92.8-186.9-134.3C-869,14.5-941-23.8-1015.3-54.1
			c-142.9-58.3-269.2-86.9-386.1-87.5c-54.6-0.4-109.7,6.4-164.2,20.2C-1664-96.2-1753.4-50-1840-5.3l-10.9,5.7
			c-66.4,34.2-120.8,57.1-171.1,71.9l0.2,0.7c50.4-14.7,104.8-37.6,171.3-71.9l10.9-5.7c86.5-44.8,176-91,274.3-116
			c54.3-13.8,109.4-20.7,163.9-20.2c116.8,0.6,243.1,29.2,385.9,87.5C-941.3-23-869.3,15.4-789,67.3
			c64.1,41.5,123.7,86.6,186.9,134.3c58.6,44.2,119.2,90.1,185.1,133.9c38.4,25.6,80.7,51.8,125.8,77.9
			c180.9,103.8,372.7,170.8,539.9,188.5C263.8,603.5,278.8,604.4,293.8,604.8z"/>
		
			<linearGradient id="SVGID_00000139982703079086752810000014971600070783710352_" gradientUnits="userSpaceOnUse" x1="579.4215" y1="-264.1454" x2="371.3715" y2="1267.3197" gradientTransform="matrix(1 0 0 -1 0 754)">
			<stop  offset="0.25" style="stop-color:#D2D3D3"/>
			<stop  offset="0.7448" style="stop-color:#D2D3D3;stop-opacity:0"/>
			<stop  offset="0.9115" style="stop-color:#D2D3D3"/>
		</linearGradient>
		
			<linearGradient id="SVGID_00000057109155911113074950000004059482676672478626_" gradientUnits="userSpaceOnUse" x1="579.4341" y1="-264.1436" x2="371.3842" y2="1267.3214" gradientTransform="matrix(1 0 0 -1 0 754)">
			<stop  offset="0.25" style="stop-color:#D2D3D3"/>
			<stop  offset="0.7448" style="stop-color:#D2D3D3;stop-opacity:0"/>
			<stop  offset="0.9115" style="stop-color:#D2D3D3"/>
		</linearGradient>
		
			<path style="fill:url(#SVGID_00000139982703079086752810000014971600070783710352_);stroke:url(#SVGID_00000057109155911113074950000004059482676672478626_);" d="
			M224.5,626.4c43.1,1.1,86.3-3.1,130.7-12.7c56.3-12.1,113.1-32.5,173.7-62.4C641,496.1,747.3,417.2,850,340.9
			c83.5-62,162.4-120.7,243.1-166.5c89.6-51.3,184.1-90.3,280.8-116.2c200.5-53.5,420.2-52.7,653,2.6
			c67.8,16.1,136.5,36.3,203.8,60.2c81.9,28.9,161.8,64.9,229,96.2c52.2,24.3,103.4,50.3,152.9,75.4
			c122.9,62.3,238.9,121.2,362.9,152.8l0.2-0.8c-123.9-31.5-240-90.4-362.8-152.7c-49.5-25.1-100.8-51.1-153-75.4
			c-67.3-31.3-147.1-67.2-229.1-96.2c-67.4-23.9-136-44.1-203.9-60.2c-112.8-26.8-223.2-41-328.2-42.3
			c-112.1-1.4-221.5,12-325.2,39.7c-96.8,25.8-191.4,65-281,116.3c-80.7,45.8-159.6,104.4-243.2,166.5
			c-192.8,143.3-391.8,291-625,285.3c-18.2-0.4-36.6-1.8-55.3-4.2C9.8,600.8-181.2,529.5-355,425.7c-43.6-26.2-84.4-52.7-121.4-78.8
			c-72.3-51.2-137-105.1-199.4-157.3c-52-43.4-101-84.4-153.7-123.4C-906.3,9.2-975-33.1-1045.8-67.1
			c-65-31.2-124.3-54.8-181.6-72.1c-67.2-20.4-132.3-32-193.5-34.6c-54.2-2.4-108.5,2.8-161.2,15.5
			c-102.7,24.8-196.6,77.2-276.7,124.5c-69,40.7-118.3,68.9-166.4,92.6l0.3,0.7c48.2-23.7,97.5-51.9,166.5-92.6
			c80-47.2,173.9-99.7,276.4-124.4c52.6-12.7,106.8-17.9,160.9-15.4c112.9,4.8,235.4,39.7,374.9,106.7
			C-975.4-32.3-906.8,10-830,66.9c52.7,39,101.8,80,153.7,123.3c62.5,52.2,127.1,106.1,199.5,157.3c37,26.1,77.8,52.7,121.4,78.9
			c82.3,49.1,171.2,92.6,257.2,125.4c94,35.9,183.9,59.6,267.2,70.2C187.6,624.6,206.1,626,224.5,626.4z"/>
		
			<linearGradient id="SVGID_00000176750822011184097870000018183740315021782712_" gradientUnits="userSpaceOnUse" x1="594.1936" y1="-313.3599" x2="352.6136" y2="1325.1062" gradientTransform="matrix(1 0 0 -1 0 754)">
			<stop  offset="0.25" style="stop-color:#D2D3D3"/>
			<stop  offset="0.7448" style="stop-color:#D2D3D3;stop-opacity:0"/>
			<stop  offset="0.9115" style="stop-color:#D2D3D3"/>
		</linearGradient>
		
			<linearGradient id="SVGID_00000054224318102919448610000003487183914931526071_" gradientUnits="userSpaceOnUse" x1="594.1682" y1="-313.3636" x2="352.5882" y2="1325.1024" gradientTransform="matrix(1 0 0 -1 0 754)">
			<stop  offset="0.25" style="stop-color:#D2D3D3"/>
			<stop  offset="0.7448" style="stop-color:#D2D3D3;stop-opacity:0"/>
			<stop  offset="0.9115" style="stop-color:#D2D3D3"/>
		</linearGradient>
		
			<path style="fill:url(#SVGID_00000176750822011184097870000018183740315021782712_);stroke:url(#SVGID_00000054224318102919448610000003487183914931526071_);" d="
			M154.8,648.3c41.2,1,82.5-2.9,124.9-12c57.5-12.2,115.3-33.4,177-64.8C571,513.4,678.8,429.7,783,348.7
			c85.5-66.4,166.3-129.1,248.8-177.4c91.7-53.7,188.6-94.3,287.9-120.3C1524.9-3,1750.8,2.1,1991.1,66
			c68.5,18.2,138.8,41.2,208.7,68.2c80.6,31.2,160,68.8,233.8,104.8c30.6,14.8,61.5,30.2,91.3,45c72.8,36.2,147.9,73.6,222.5,104.7
			c83.6,34.9,158.4,58.2,228.8,71.5l0.1-0.8c-156.7-29.4-299.7-100.6-451-176c-29.8-14.9-60.7-30.2-91.3-45
			c-73.8-36-153.2-73.7-233.8-104.8c-70-27-140.3-50-208.8-68.2c-116.2-30.9-229.7-48.3-337.5-51.7c-115.5-3.6-228.1,8.7-334.4,36.6
			c-99.4,26.1-196.3,66.7-288.1,120.4c-82.6,48.3-163.3,111-248.8,177.4C589.3,498.2,389.9,653.2,155,647.4
			c-21.5-0.5-43.3-2.4-65.5-5.7c-154-23.3-339.4-97.1-508.7-202.8c-41.3-25.9-80.7-52.7-117-79.9
			c-77.3-58.2-144.4-120.4-209.3-180.6c-42.3-39.2-82.3-76.3-125.1-112.6c-72.3-61.3-137.7-107.6-205.8-145.8
			c-63.3-35.2-120.7-62.1-175.5-82.2c-66.6-24.5-128.2-38.8-188.7-43.7c-53.8-4.5-107-0.9-158.2,10.7
			c-45.9,10.4-91.8,27.2-140.3,51.4c-39.2,19.5-79.7,43.7-127.7,75.8c-35.6,23.9-68.9,47.5-100.9,70.4c-21.1,15-40.9,29.1-60.7,42.8
			l0.4,0.6c19.9-13.8,39.8-27.9,60.7-42.8c32.1-22.8,65.3-46.4,100.9-70.4c69.4-46.6,162.4-103.2,267.8-127.1
			c51.1-11.6,104.2-15.2,157.9-10.7c110,9,225.6,49,363.9,126C-1008.7-41-943.4,5.3-871,66.5c42.8,36.3,82.7,73.3,125.1,112.6
			c64.9,60.2,132.1,122.4,209.3,180.7c36.3,27.2,75.7,54,117.1,79.9c169.4,105.6,354.9,179.5,509,202.9
			C111.3,645.9,133.1,647.8,154.8,648.3z"/>
	</g>
</g>
</svg>
